	<svg viewBox="0 0 180 545" xmlns="http://www.w3.org/2000/svg" xmlns:xlink="http://www.w3.org/1999/xlink">

    <g class="c1r9">
        <text xml:space="preserve" text-anchor="start" font-family="Helvetica, Arial, sans-serif" font-size="10" x="164" y="40" fill="#b2b2b2">7</text>
        <text xml:space="preserve" text-anchor="start" font-family="Helvetica, Arial, sans-serif" font-size="10" x="148" y="55" fill="#b2b2b2">6</text>
		<text xml:space="preserve" text-anchor="start" font-family="Helvetica, Arial, sans-serif" font-size="10" x="132" y="40" fill="#b2b2b2">5</text>
		<text xml:space="preserve" text-anchor="start" font-family="Helvetica, Arial, sans-serif" font-size="10" x="116" y="55" fill="#b2b2b2">4</text>
		<text xml:space="preserve" text-anchor="start" font-family="Helvetica, Arial, sans-serif" font-size="10" x="100" y="40" fill="#b2b2b2">3</text>
		<text xml:space="preserve" text-anchor="start" font-family="Helvetica, Arial, sans-serif" font-size="10" x="84" y="55" fill="#b2b2b2">2</text>
		<text xml:space="preserve" text-anchor="start" font-family="Helvetica, Arial, sans-serif" font-size="10" x="68" y="40" fill="#b2b2b2">1</text>
			<g class="r9 seats">
				<rect id="c1r9s7" height="20" width="16" x="160" y="10" stroke="#7f7f7f" fill="#e5e5e5"/>
				<rect id="c1r9s6" height="20" width="16" x="144" y="25" stroke="#7f7f7f" fill="#e5e5e5"/>
				<rect id="c1r9s5" height="20" width="16" x="128" y="10" stroke="#7f7f7f" fill="#e5e5e5"/>
				<rect id="c1r9s4" height="20" width="16" x="112" y="25" stroke="#7f7f7f" fill="#e5e5e5"/>
				<rect id="c1r9s3" height="20" width="16" x="96" y="10" stroke="#7f7f7f" fill="#e5e5e5"/>
                <rect id="c1r9s2" height="20" width="16" x="80" y="25" stroke="#7f7f7f" fill="#e5e5e5"/>
                <rect id="c1r9s1" height="20" width="16" x="64" y="10" stroke="#7f7f7f" fill="#e5e5e5"/>
				<image preserveAspectRatio="xMidYMid slice"  id="c1r9s7" height="20" width="16" x="160" y="10"  xlink:href=""/>
				<image preserveAspectRatio="xMidYMid slice"  id="c1r9s6" height="20" width="16" x="144" y="25"  xlink:href=""/>
				<image preserveAspectRatio="xMidYMid slice"  id="c1r9s5" height="20" width="16" x="128" y="10"  xlink:href=""/>
				<image preserveAspectRatio="xMidYMid slice"  id="c1r9s4" height="20" width="16" x="112" y="25"  xlink:href=""/>
				<image preserveAspectRatio="xMidYMid slice"  id="c1r9s3" height="20" width="16" x="96" y="10"  xlink:href=""/>
				<image preserveAspectRatio="xMidYMid slice"  id="c1r9s2" height="20" width="16" x="80" y="25"  xlink:href=""/>
				<image preserveAspectRatio="xMidYMid slice"  id="c1r9s1" height="20" width="16" x="64" y="10"  xlink:href=""/>
			</g>
	</g>


    <g class="c1r8">
        <text xml:space="preserve" text-anchor="start" font-family="Helvetica, Arial, sans-serif" font-size="10" x="164" y="100" fill="#b2b2b2">7</text>
        <text xml:space="preserve" text-anchor="start" font-family="Helvetica, Arial, sans-serif" font-size="10" x="148" y="115" fill="#b2b2b2">6</text>
		<text xml:space="preserve" text-anchor="start" font-family="Helvetica, Arial, sans-serif" font-size="10" x="132" y="100" fill="#b2b2b2">5</text>
		<text xml:space="preserve" text-anchor="start" font-family="Helvetica, Arial, sans-serif" font-size="10" x="116" y="115" fill="#b2b2b2">4</text>
		<text xml:space="preserve" text-anchor="start" font-family="Helvetica, Arial, sans-serif" font-size="10" x="100" y="100" fill="#b2b2b2">3</text>
		<text xml:space="preserve" text-anchor="start" font-family="Helvetica, Arial, sans-serif" font-size="10" x="84" y="115" fill="#b2b2b2">2</text>
		<text xml:space="preserve" text-anchor="start" font-family="Helvetica, Arial, sans-serif" font-size="10" x="68" y="100" fill="#b2b2b2">1</text>
			<g class="r8 seats">
				<rect id="c1r8s7" height="20" width="16" x="160" y="70" stroke="#7f7f7f" fill="#e5e5e5"/>
				<rect id="c1r8s6" height="20" width="16" x="144" y="85" stroke="#7f7f7f" fill="#e5e5e5"/>
				<rect id="c1r8s5" height="20" width="16" x="128" y="70" stroke="#7f7f7f" fill="#e5e5e5"/>
				<rect id="c1r8s4" height="20" width="16" x="112" y="85" stroke="#7f7f7f" fill="#e5e5e5"/>
				<rect id="c1r8s3" height="20" width="16" x="96" y="70" stroke="#7f7f7f" fill="#e5e5e5"/>
                <rect id="c1r8s2" height="20" width="16" x="80" y="85" stroke="#7f7f7f" fill="#e5e5e5"/>
                <rect id="c1r8s1" height="20" width="16" x="64" y="70" stroke="#7f7f7f" fill="#e5e5e5"/>
				<image preserveAspectRatio="xMidYMid slice"  id="c1r8s7" height="20" width="16" x="160" y="70"  xlink:href=""/>
				<image preserveAspectRatio="xMidYMid slice"  id="c1r8s6" height="20" width="16" x="144" y="85"  xlink:href=""/>
				<image preserveAspectRatio="xMidYMid slice"  id="c1r8s5" height="20" width="16" x="128" y="70"  xlink:href=""/>
				<image preserveAspectRatio="xMidYMid slice"  id="c1r8s4" height="20" width="16" x="112" y="85"  xlink:href=""/>
				<image preserveAspectRatio="xMidYMid slice"  id="c1r8s3" height="20" width="16" x="96" y="70"  xlink:href=""/>
				<image preserveAspectRatio="xMidYMid slice"  id="c1r8s2" height="20" width="16" x="80" y="85"  xlink:href=""/>
				<image preserveAspectRatio="xMidYMid slice"  id="c1r8s1" height="20" width="16" x="64" y="70"  xlink:href=""/>
			</g>
	</g>

    <g class="c1r7">
        <text xml:space="preserve" text-anchor="start" font-family="Helvetica, Arial, sans-serif" font-size="10" x="164" y="160" fill="#b2b2b2">7</text>
        <text xml:space="preserve" text-anchor="start" font-family="Helvetica, Arial, sans-serif" font-size="10" x="148" y="175" fill="#b2b2b2">6</text>
		<text xml:space="preserve" text-anchor="start" font-family="Helvetica, Arial, sans-serif" font-size="10" x="132" y="160" fill="#b2b2b2">5</text>
		<text xml:space="preserve" text-anchor="start" font-family="Helvetica, Arial, sans-serif" font-size="10" x="116" y="175" fill="#b2b2b2">4</text>
		<text xml:space="preserve" text-anchor="start" font-family="Helvetica, Arial, sans-serif" font-size="10" x="100" y="160" fill="#b2b2b2">3</text>
		<text xml:space="preserve" text-anchor="start" font-family="Helvetica, Arial, sans-serif" font-size="10" x="84" y="175" fill="#b2b2b2">2</text>
		<text xml:space="preserve" text-anchor="start" font-family="Helvetica, Arial, sans-serif" font-size="10" x="68" y="160" fill="#b2b2b2">1</text>
			<g class="r7 seats">
				<rect id="c1r7s7" height="20" width="16" x="160" y="130" stroke="#7f7f7f" fill="#e5e5e5"/>
				<rect id="c1r7s6" height="20" width="16" x="144" y="145" stroke="#7f7f7f" fill="#e5e5e5"/>
				<rect id="c1r7s5" height="20" width="16" x="128" y="130" stroke="#7f7f7f" fill="#e5e5e5"/>
				<rect id="c1r7s4" height="20" width="16" x="112" y="145" stroke="#7f7f7f" fill="#e5e5e5"/>
				<rect id="c1r7s3" height="20" width="16" x="96" y="130" stroke="#7f7f7f" fill="#e5e5e5"/>
                <rect id="c1r7s2" height="20" width="16" x="80" y="145" stroke="#7f7f7f" fill="#e5e5e5"/>
                <rect id="c1r7s1" height="20" width="16" x="64" y="130" stroke="#7f7f7f" fill="#e5e5e5"/>
				<image preserveAspectRatio="xMidYMid slice"  id="c1r7s7" height="20" width="16" x="160" y="130"  xlink:href=""/>
				<image preserveAspectRatio="xMidYMid slice"  id="c1r7s6" height="20" width="16" x="144" y="145"  xlink:href=""/>
				<image preserveAspectRatio="xMidYMid slice"  id="c1r7s5" height="20" width="16" x="128" y="130"  xlink:href=""/>
				<image preserveAspectRatio="xMidYMid slice"  id="c1r7s4" height="20" width="16" x="112" y="145"  xlink:href=""/>
				<image preserveAspectRatio="xMidYMid slice"  id="c1r7s3" height="20" width="16" x="96" y="130"  xlink:href=""/>
				<image preserveAspectRatio="xMidYMid slice"  id="c1r7s2" height="20" width="16" x="80" y="145"  xlink:href=""/>
				<image preserveAspectRatio="xMidYMid slice"  id="c1r7s1" height="20" width="16" x="64" y="130"  xlink:href=""/>
			</g>
	</g>

    <g class="c1r6">
        <text xml:space="preserve" text-anchor="start" font-family="Helvetica, Arial, sans-serif" font-size="10" x="164" y="220" fill="#b2b2b2">7</text>
        <text xml:space="preserve" text-anchor="start" font-family="Helvetica, Arial, sans-serif" font-size="10" x="148" y="235" fill="#b2b2b2">6</text>
		<text xml:space="preserve" text-anchor="start" font-family="Helvetica, Arial, sans-serif" font-size="10" x="132" y="220" fill="#b2b2b2">5</text>
		<text xml:space="preserve" text-anchor="start" font-family="Helvetica, Arial, sans-serif" font-size="10" x="116" y="235" fill="#b2b2b2">4</text>
		<text xml:space="preserve" text-anchor="start" font-family="Helvetica, Arial, sans-serif" font-size="10" x="100" y="220" fill="#b2b2b2">3</text>
		<text xml:space="preserve" text-anchor="start" font-family="Helvetica, Arial, sans-serif" font-size="10" x="84" y="235" fill="#b2b2b2">2</text>
		<text xml:space="preserve" text-anchor="start" font-family="Helvetica, Arial, sans-serif" font-size="10" x="68" y="220" fill="#b2b2b2">1</text>
			<g class="r6 seats">
				<rect id="c1r6s7" height="20" width="16" x="160" y="190" stroke="#7f7f7f" fill="#e5e5e5"/>
				<rect id="c1r6s6" height="20" width="16" x="144" y="205" stroke="#7f7f7f" fill="#e5e5e5"/>
				<rect id="c1r6s5" height="20" width="16" x="128" y="190" stroke="#7f7f7f" fill="#e5e5e5"/>
				<rect id="c1r6s4" height="20" width="16" x="112" y="205" stroke="#7f7f7f" fill="#e5e5e5"/>
				<rect id="c1r6s3" height="20" width="16" x="96" y="190" stroke="#7f7f7f" fill="#e5e5e5"/>
                <rect id="c1r6s2" height="20" width="16" x="80" y="205" stroke="#7f7f7f" fill="#e5e5e5"/>
                <rect id="c1r6s1" height="20" width="16" x="64" y="190" stroke="#7f7f7f" fill="#e5e5e5"/>
				<image preserveAspectRatio="xMidYMid slice"  id="c1r6s7" height="20" width="16" x="160" y="190"  xlink:href=""/>
				<image preserveAspectRatio="xMidYMid slice"  id="c1r6s6" height="20" width="16" x="144" y="205"  xlink:href=""/>
				<image preserveAspectRatio="xMidYMid slice"  id="c1r6s5" height="20" width="16" x="128" y="190"  xlink:href=""/>
				<image preserveAspectRatio="xMidYMid slice"  id="c1r6s4" height="20" width="16" x="112" y="205"  xlink:href=""/>
				<image preserveAspectRatio="xMidYMid slice"  id="c1r6s3" height="20" width="16" x="96" y="190"  xlink:href=""/>
				<image preserveAspectRatio="xMidYMid slice"  id="c1r6s2" height="20" width="16" x="80" y="205"  xlink:href=""/>
				<image preserveAspectRatio="xMidYMid slice"  id="c1r6s1" height="20" width="16" x="64" y="190"  xlink:href=""/>
			</g>
	</g>

    <g class="c1r5">
        <text xml:space="preserve" text-anchor="start" font-family="Helvetica, Arial, sans-serif" font-size="10" x="164" y="280" fill="#b2b2b2">7</text>
        <text xml:space="preserve" text-anchor="start" font-family="Helvetica, Arial, sans-serif" font-size="10" x="148" y="295" fill="#b2b2b2">6</text>
		<text xml:space="preserve" text-anchor="start" font-family="Helvetica, Arial, sans-serif" font-size="10" x="132" y="280" fill="#b2b2b2">5</text>
		<text xml:space="preserve" text-anchor="start" font-family="Helvetica, Arial, sans-serif" font-size="10" x="116" y="295" fill="#b2b2b2">4</text>
		<text xml:space="preserve" text-anchor="start" font-family="Helvetica, Arial, sans-serif" font-size="10" x="100" y="280" fill="#b2b2b2">3</text>
		<text xml:space="preserve" text-anchor="start" font-family="Helvetica, Arial, sans-serif" font-size="10" x="84" y="295" fill="#b2b2b2">2</text>
		<text xml:space="preserve" text-anchor="start" font-family="Helvetica, Arial, sans-serif" font-size="10" x="68" y="280" fill="#b2b2b2">1</text>
			<g class="r5 seats">
				<rect id="c1r5s7" height="20" width="16" x="160" y="250" stroke="#7f7f7f" fill="#e5e5e5"/>
				<rect id="c1r5s6" height="20" width="16" x="144" y="265" stroke="#7f7f7f" fill="#e5e5e5"/>
				<rect id="c1r5s5" height="20" width="16" x="128" y="250" stroke="#7f7f7f" fill="#e5e5e5"/>
				<rect id="c1r5s4" height="20" width="16" x="112" y="265" stroke="#7f7f7f" fill="#e5e5e5"/>
				<rect id="c1r5s3" height="20" width="16" x="96" y="250" stroke="#7f7f7f" fill="#e5e5e5"/>
                <rect id="c1r5s2" height="20" width="16" x="80" y="265" stroke="#7f7f7f" fill="#e5e5e5"/>
                <rect id="c1r5s1" height="20" width="16" x="64" y="250" stroke="#7f7f7f" fill="#e5e5e5"/>
				<image preserveAspectRatio="xMidYMid slice"  id="c1r5s7" height="20" width="16" x="160" y="250"  xlink:href=""/>
				<image preserveAspectRatio="xMidYMid slice"  id="c1r5s6" height="20" width="16" x="144" y="265"  xlink:href=""/>
				<image preserveAspectRatio="xMidYMid slice"  id="c1r5s5" height="20" width="16" x="128" y="250"  xlink:href=""/>
				<image preserveAspectRatio="xMidYMid slice"  id="c1r5s4" height="20" width="16" x="112" y="265"  xlink:href=""/>
				<image preserveAspectRatio="xMidYMid slice"  id="c1r5s3" height="20" width="16" x="96" y="250"  xlink:href=""/>
				<image preserveAspectRatio="xMidYMid slice"  id="c1r5s2" height="20" width="16" x="80" y="265"  xlink:href=""/>
				<image preserveAspectRatio="xMidYMid slice"  id="c1r5s1" height="20" width="16" x="64" y="250"  xlink:href=""/>
			</g>
	</g>

    <g class="c1r4">
        <text xml:space="preserve" text-anchor="start" font-family="Helvetica, Arial, sans-serif" font-size="10" x="164" y="340" fill="#b2b2b2">7</text>
        <text xml:space="preserve" text-anchor="start" font-family="Helvetica, Arial, sans-serif" font-size="10" x="148" y="355" fill="#b2b2b2">6</text>
		<text xml:space="preserve" text-anchor="start" font-family="Helvetica, Arial, sans-serif" font-size="10" x="132" y="340" fill="#b2b2b2">5</text>
		<text xml:space="preserve" text-anchor="start" font-family="Helvetica, Arial, sans-serif" font-size="10" x="116" y="355" fill="#b2b2b2">4</text>
		<text xml:space="preserve" text-anchor="start" font-family="Helvetica, Arial, sans-serif" font-size="10" x="100" y="340" fill="#b2b2b2">3</text>
		<text xml:space="preserve" text-anchor="start" font-family="Helvetica, Arial, sans-serif" font-size="10" x="84" y="355" fill="#b2b2b2">2</text>
		<text xml:space="preserve" text-anchor="start" font-family="Helvetica, Arial, sans-serif" font-size="10" x="68" y="340" fill="#b2b2b2">1</text>
			<g class="r4 seats">
				<rect id="c1r4s7" height="20" width="16" x="160" y="310" stroke="#7f7f7f" fill="#e5e5e5"/>
				<rect id="c1r4s6" height="20" width="16" x="144" y="325" stroke="#7f7f7f" fill="#e5e5e5"/>
				<rect id="c1r4s5" height="20" width="16" x="128" y="310" stroke="#7f7f7f" fill="#e5e5e5"/>
				<rect id="c1r4s4" height="20" width="16" x="112" y="325" stroke="#7f7f7f" fill="#e5e5e5"/>
				<rect id="c1r4s3" height="20" width="16" x="96" y="310" stroke="#7f7f7f" fill="#e5e5e5"/>
                <rect id="c1r4s2" height="20" width="16" x="80" y="325" stroke="#7f7f7f" fill="#e5e5e5"/>
                <rect id="c1r4s1" height="20" width="16" x="64" y="310" stroke="#7f7f7f" fill="#e5e5e5"/>
				<image preserveAspectRatio="xMidYMid slice"  id="c1r4s7" height="20" width="16" x="160" y="310"  xlink:href=""/>
				<image preserveAspectRatio="xMidYMid slice"  id="c1r4s6" height="20" width="16" x="144" y="325"  xlink:href=""/>
				<image preserveAspectRatio="xMidYMid slice"  id="c1r4s5" height="20" width="16" x="128" y="310"  xlink:href=""/>
				<image preserveAspectRatio="xMidYMid slice"  id="c1r4s4" height="20" width="16" x="112" y="325"  xlink:href=""/>
				<image preserveAspectRatio="xMidYMid slice"  id="c1r4s3" height="20" width="16" x="96" y="310"  xlink:href=""/>
				<image preserveAspectRatio="xMidYMid slice"  id="c1r4s2" height="20" width="16" x="80" y="325"  xlink:href=""/>
				<image preserveAspectRatio="xMidYMid slice"  id="c1r4s1" height="20" width="16" x="64" y="310"  xlink:href=""/>
			</g>
	</g>

    <g class="c1r3">
        <text xml:space="preserve" text-anchor="start" font-family="Helvetica, Arial, sans-serif" font-size="10" x="164" y="400" fill="#b2b2b2">7</text>
        <text xml:space="preserve" text-anchor="start" font-family="Helvetica, Arial, sans-serif" font-size="10" x="148" y="415" fill="#b2b2b2">6</text>
		<text xml:space="preserve" text-anchor="start" font-family="Helvetica, Arial, sans-serif" font-size="10" x="132" y="400" fill="#b2b2b2">5</text>
		<text xml:space="preserve" text-anchor="start" font-family="Helvetica, Arial, sans-serif" font-size="10" x="116" y="415" fill="#b2b2b2">4</text>
		<text xml:space="preserve" text-anchor="start" font-family="Helvetica, Arial, sans-serif" font-size="10" x="100" y="400" fill="#b2b2b2">3</text>
		<text xml:space="preserve" text-anchor="start" font-family="Helvetica, Arial, sans-serif" font-size="10" x="84" y="415" fill="#b2b2b2">2</text>
		<text xml:space="preserve" text-anchor="start" font-family="Helvetica, Arial, sans-serif" font-size="10" x="68" y="400" fill="#b2b2b2">1</text>
			<g class="r3 seats">
				<rect id="c1r3s7" height="20" width="16" x="160" y="370" stroke="#7f7f7f" fill="#e5e5e5"/>
				<rect id="c1r3s6" height="20" width="16" x="144" y="385" stroke="#7f7f7f" fill="#e5e5e5"/>
				<rect id="c1r3s5" height="20" width="16" x="128" y="370" stroke="#7f7f7f" fill="#e5e5e5"/>
				<rect id="c1r3s4" height="20" width="16" x="112" y="385" stroke="#7f7f7f" fill="#e5e5e5"/>
				<rect id="c1r3s3" height="20" width="16" x="96" y="370" stroke="#7f7f7f" fill="#e5e5e5"/>
                <rect id="c1r3s2" height="20" width="16" x="80" y="385" stroke="#7f7f7f" fill="#e5e5e5"/>
                <rect id="c1r3s1" height="20" width="16" x="64" y="370" stroke="#7f7f7f" fill="#e5e5e5"/>
				<image preserveAspectRatio="xMidYMid slice"  id="c1r3s7" height="20" width="16" x="160" y="370"  xlink:href=""/>
				<image preserveAspectRatio="xMidYMid slice"  id="c1r3s6" height="20" width="16" x="144" y="385"  xlink:href=""/>
				<image preserveAspectRatio="xMidYMid slice"  id="c1r3s5" height="20" width="16" x="128" y="370"  xlink:href=""/>
				<image preserveAspectRatio="xMidYMid slice"  id="c1r3s4" height="20" width="16" x="112" y="385"  xlink:href=""/>
				<image preserveAspectRatio="xMidYMid slice"  id="c1r3s3" height="20" width="16" x="96" y="370"  xlink:href=""/>
				<image preserveAspectRatio="xMidYMid slice"  id="c1r3s2" height="20" width="16" x="80" y="385"  xlink:href=""/>
				<image preserveAspectRatio="xMidYMid slice"  id="c1r3s1" height="20" width="16" x="64" y="370"  xlink:href=""/>
			</g>
	</g>

    <g class="c1r2">
        <text xml:space="preserve" text-anchor="start" font-family="Helvetica, Arial, sans-serif" font-size="10" x="164" y="460" fill="#b2b2b2">7</text>
        <text xml:space="preserve" text-anchor="start" font-family="Helvetica, Arial, sans-serif" font-size="10" x="148" y="475" fill="#b2b2b2">6</text>
		<text xml:space="preserve" text-anchor="start" font-family="Helvetica, Arial, sans-serif" font-size="10" x="132" y="460" fill="#b2b2b2">5</text>
		<text xml:space="preserve" text-anchor="start" font-family="Helvetica, Arial, sans-serif" font-size="10" x="116" y="475" fill="#b2b2b2">4</text>
		<text xml:space="preserve" text-anchor="start" font-family="Helvetica, Arial, sans-serif" font-size="10" x="100" y="460" fill="#b2b2b2">3</text>
		<text xml:space="preserve" text-anchor="start" font-family="Helvetica, Arial, sans-serif" font-size="10" x="84" y="475" fill="#b2b2b2">2</text>
		<text xml:space="preserve" text-anchor="start" font-family="Helvetica, Arial, sans-serif" font-size="10" x="68" y="460" fill="#b2b2b2">1</text>
			<g class="r2 seats">
				<rect id="c1r2s7" height="20" width="16" x="160" y="430" stroke="#7f7f7f" fill="#e5e5e5"/>
				<rect id="c1r2s6" height="20" width="16" x="144" y="445" stroke="#7f7f7f" fill="#e5e5e5"/>
				<rect id="c1r2s5" height="20" width="16" x="128" y="430" stroke="#7f7f7f" fill="#e5e5e5"/>
				<rect id="c1r2s4" height="20" width="16" x="112" y="445" stroke="#7f7f7f" fill="#e5e5e5"/>
				<rect id="c1r2s3" height="20" width="16" x="96" y="430" stroke="#7f7f7f" fill="#e5e5e5"/>
                <rect id="c1r2s2" height="20" width="16" x="80" y="445" stroke="#7f7f7f" fill="#e5e5e5"/>
                <rect id="c1r2s1" height="20" width="16" x="64" y="430" stroke="#7f7f7f" fill="#e5e5e5"/>
				<image preserveAspectRatio="xMidYMid slice"  id="c1r2s7" height="20" width="16" x="160" y="430"  xlink:href=""/>
				<image preserveAspectRatio="xMidYMid slice"  id="c1r2s6" height="20" width="16" x="144" y="445"  xlink:href=""/>
				<image preserveAspectRatio="xMidYMid slice"  id="c1r2s5" height="20" width="16" x="128" y="430"  xlink:href=""/>
				<image preserveAspectRatio="xMidYMid slice"  id="c1r2s4" height="20" width="16" x="112" y="445"  xlink:href=""/>
				<image preserveAspectRatio="xMidYMid slice"  id="c1r2s3" height="20" width="16" x="96" y="430"  xlink:href=""/>
				<image preserveAspectRatio="xMidYMid slice"  id="c1r2s2" height="20" width="16" x="80" y="445"  xlink:href=""/>
				<image preserveAspectRatio="xMidYMid slice"  id="c1r2s1" height="20" width="16" x="64" y="430"  xlink:href=""/>
			</g>
	</g>

    <g class="c1r1">
        <text xml:space="preserve" text-anchor="start" font-family="Helvetica, Arial, sans-serif" font-size="10" x="164" y="520" fill="#b2b2b2">7</text>
        <text xml:space="preserve" text-anchor="start" font-family="Helvetica, Arial, sans-serif" font-size="10" x="148" y="535" fill="#b2b2b2">6</text>
		<text xml:space="preserve" text-anchor="start" font-family="Helvetica, Arial, sans-serif" font-size="10" x="132" y="520" fill="#b2b2b2">5</text>
		<text xml:space="preserve" text-anchor="start" font-family="Helvetica, Arial, sans-serif" font-size="10" x="116" y="535" fill="#b2b2b2">4</text>
		<text xml:space="preserve" text-anchor="start" font-family="Helvetica, Arial, sans-serif" font-size="10" x="100" y="520" fill="#b2b2b2">3</text>
		<text xml:space="preserve" text-anchor="start" font-family="Helvetica, Arial, sans-serif" font-size="10" x="84" y="535" fill="#b2b2b2">2</text>
		<text xml:space="preserve" text-anchor="start" font-family="Helvetica, Arial, sans-serif" font-size="10" x="68" y="520" fill="#b2b2b2">1</text>
			<g class="r1 seats">
				<rect id="c1r1s7" height="20" width="16" x="160" y="490" stroke="#7f7f7f" fill="#e5e5e5"/>
				<rect id="c1r1s6" height="20" width="16" x="144" y="505" stroke="#7f7f7f" fill="#e5e5e5"/>
				<rect id="c1r1s5" height="20" width="16" x="128" y="490" stroke="#7f7f7f" fill="#e5e5e5"/>
				<rect id="c1r1s4" height="20" width="16" x="112" y="505" stroke="#7f7f7f" fill="#e5e5e5"/>
				<rect id="c1r1s3" height="20" width="16" x="96" y="490" stroke="#7f7f7f" fill="#e5e5e5"/>
                <rect id="c1r1s2" height="20" width="16" x="80" y="505" stroke="#7f7f7f" fill="#e5e5e5"/>
                <rect id="c1r1s1" height="20" width="16" x="64" y="490" stroke="#7f7f7f" fill="#e5e5e5"/>
				<image preserveAspectRatio="xMidYMid slice"  id="c1r1s7" height="20" width="16" x="160" y="490"  xlink:href=""/>
				<image preserveAspectRatio="xMidYMid slice"  id="c1r1s6" height="20" width="16" x="144" y="505"  xlink:href=""/>
				<image preserveAspectRatio="xMidYMid slice"  id="c1r1s5" height="20" width="16" x="128" y="490"  xlink:href=""/>
				<image preserveAspectRatio="xMidYMid slice"  id="c1r1s4" height="20" width="16" x="112" y="505"  xlink:href=""/>
				<image preserveAspectRatio="xMidYMid slice"  id="c1r1s3" height="20" width="16" x="96" y="490"  xlink:href=""/>
				<image preserveAspectRatio="xMidYMid slice"  id="c1r1s2" height="20" width="16" x="80" y="505"  xlink:href=""/>
				<image preserveAspectRatio="xMidYMid slice"  id="c1r1s1" height="20" width="16" x="64" y="490"  xlink:href=""/>
			</g>
	</g>

	<text fill="#cccccc" x="0" y="36" font-size="20" font-family="Helvetica, Arial, sans-serif" xml:space="preserve" font-weight="bold">r9</text>
	<text fill="#cccccc" x="0" y="96" font-size="20" font-family="Helvetica, Arial, sans-serif" xml:space="preserve" font-weight="bold">r8</text>
	<text fill="#cccccc" x="0" y="156" font-size="20" font-family="Helvetica, Arial, sans-serif" xml:space="preserve" font-weight="bold">r7</text>
	<text fill="#cccccc" x="0" y="216" font-size="20" font-family="Helvetica, Arial, sans-serif" xml:space="preserve" font-weight="bold">r6</text>
	<text fill="#cccccc" x="0" y="276" font-size="20" font-family="Helvetica, Arial, sans-serif" xml:space="preserve" font-weight="bold">r5</text>
	<text fill="#cccccc" x="0" y="336" font-size="20" font-family="Helvetica, Arial, sans-serif" xml:space="preserve" font-weight="bold">r4</text>
	<text fill="#cccccc" x="0" y="396" font-size="20" font-family="Helvetica, Arial, sans-serif" xml:space="preserve" font-weight="bold">r3</text>
	<text fill="#cccccc" x="0" y="456" font-size="20" font-family="Helvetica, Arial, sans-serif" xml:space="preserve" font-weight="bold">r2</text>
	<text fill="#cccccc" x="0" y="516" font-size="20" font-family="Helvetica, Arial, sans-serif" xml:space="preserve" font-weight="bold">r1</text>

    </svg>