		<svg viewBox="0 0 600 960" xmlns="http://www.w3.org/2000/svg" xmlns:xlink="http://www.w3.org/1999/xlink">

    <g class="c6r10">
        <text xml:space="preserve" text-anchor="start" font-family="Helvetica, Arial, sans-serif" font-size="10" x="414" y="125" fill="#b2b2b2">1</text>
        <text xml:space="preserve" text-anchor="start" font-family="Helvetica, Arial, sans-serif" font-size="10" x="398" y="110" fill="#b2b2b2">2</text>
		<text xml:space="preserve" text-anchor="start" font-family="Helvetica, Arial, sans-serif" font-size="10" x="382" y="125" fill="#b2b2b2">3</text>
		<text xml:space="preserve" text-anchor="start" font-family="Helvetica, Arial, sans-serif" font-size="10" x="366" y="110" fill="#b2b2b2">4</text>
		<text xml:space="preserve" text-anchor="start" font-family="Helvetica, Arial, sans-serif" font-size="10" x="350" y="125" fill="#b2b2b2">5</text>
		<text xml:space="preserve" text-anchor="start" font-family="Helvetica, Arial, sans-serif" font-size="10" x="334" y="110" fill="#b2b2b2">6</text>
		<text xml:space="preserve" text-anchor="start" font-family="Helvetica, Arial, sans-serif" font-size="10" x="318" y="125" fill="#b2b2b2">7</text>
        <text xml:space="preserve" text-anchor="start" font-family="Helvetica, Arial, sans-serif" font-size="10" x="302" y="110" fill="#b2b2b2">8</text>
        
			<g class="r10 seats">
				<rect id="c6r10s1" height="20" width="16" x="410" y="95" stroke="#7f7f7f" fill="#e5e5e5"/>
				<rect id="c6r10s2" height="20" width="16" x="394" y="80" stroke="#7f7f7f" fill="#e5e5e5"/>
				<rect id="c6r10s3" height="20" width="16" x="378" y="95" stroke="#7f7f7f" fill="#e5e5e5"/>
				<rect id="c6r10s4" height="20" width="16" x="362" y="80" stroke="#7f7f7f" fill="#e5e5e5"/>
				<rect id="c6r10s5" height="20" width="16" x="346" y="95" stroke="#7f7f7f" fill="#e5e5e5"/>
                <rect id="c6r10s6" height="20" width="16" x="330" y="80" stroke="#7f7f7f" fill="#e5e5e5"/>
                <rect id="c6r10s7" height="20" width="16" x="314" y="95" stroke="#7f7f7f" fill="#e5e5e5"/>
                <rect id="c6r10s8" height="20" width="16" x="298" y="80" stroke="#7f7f7f" fill="#e5e5e5"/>
				<image preserveAspectRatio="xMidYMid slice"  id="c6r10s1" height="20" width="16" x="410" y="95"  xlink:href=""/>
				<image preserveAspectRatio="xMidYMid slice"  id="c6r10s2" height="20" width="16" x="394" y="80"  xlink:href=""/>
				<image preserveAspectRatio="xMidYMid slice"  id="c6r10s3" height="20" width="16" x="378" y="95"  xlink:href=""/>
				<image preserveAspectRatio="xMidYMid slice"  id="c6r10s4" height="20" width="16" x="362" y="80"  xlink:href=""/>
				<image preserveAspectRatio="xMidYMid slice"  id="c6r10s5" height="20" width="16" x="346" y="95"  xlink:href=""/>
				<image preserveAspectRatio="xMidYMid slice"  id="c6r10s6" height="20" width="16" x="330" y="80"  xlink:href=""/>
				<image preserveAspectRatio="xMidYMid slice"  id="c6r10s7" height="20" width="16" x="314" y="95"  xlink:href=""/>
                <image preserveAspectRatio="xMidYMid slice"  id="c6r10s8" height="20" width="16" x="298" y="80"  xlink:href=""/>
			</g>
	</g>

    <g class="c6r9">
        <text xml:space="preserve" text-anchor="start" font-family="Helvetica, Arial, sans-serif" font-size="10" x="414" y="185" fill="#b2b2b2">1</text>
        <text xml:space="preserve" text-anchor="start" font-family="Helvetica, Arial, sans-serif" font-size="10" x="398" y="170" fill="#b2b2b2">2</text>
		<text xml:space="preserve" text-anchor="start" font-family="Helvetica, Arial, sans-serif" font-size="10" x="382" y="185" fill="#b2b2b2">3</text>
		<text xml:space="preserve" text-anchor="start" font-family="Helvetica, Arial, sans-serif" font-size="10" x="366" y="170" fill="#b2b2b2">4</text>
		<text xml:space="preserve" text-anchor="start" font-family="Helvetica, Arial, sans-serif" font-size="10" x="350" y="185" fill="#b2b2b2">5</text>
		<text xml:space="preserve" text-anchor="start" font-family="Helvetica, Arial, sans-serif" font-size="10" x="334" y="170" fill="#b2b2b2">6</text>
		<text xml:space="preserve" text-anchor="start" font-family="Helvetica, Arial, sans-serif" font-size="10" x="318" y="185" fill="#b2b2b2">7</text>
        <text xml:space="preserve" text-anchor="start" font-family="Helvetica, Arial, sans-serif" font-size="10" x="302" y="170" fill="#b2b2b2">8</text>
        
			<g class="r9 seats">
				<rect id="c6r9s1" height="20" width="16" x="410" y="155" stroke="#7f7f7f" fill="#e5e5e5"/>
				<rect id="c6r9s2" height="20" width="16" x="394" y="140" stroke="#7f7f7f" fill="#e5e5e5"/>
				<rect id="c6r9s3" height="20" width="16" x="378" y="155" stroke="#7f7f7f" fill="#e5e5e5"/>
				<rect id="c6r9s4" height="20" width="16" x="362" y="140" stroke="#7f7f7f" fill="#e5e5e5"/>
				<rect id="c6r9s5" height="20" width="16" x="346" y="155" stroke="#7f7f7f" fill="#e5e5e5"/>
                <rect id="c6r9s6" height="20" width="16" x="330" y="140" stroke="#7f7f7f" fill="#e5e5e5"/>
                <rect id="c6r9s7" height="20" width="16" x="314" y="155" stroke="#7f7f7f" fill="#e5e5e5"/>
                <rect id="c6r9s8" height="20" width="16" x="298" y="140" stroke="#7f7f7f" fill="#e5e5e5"/>
				<image preserveAspectRatio="xMidYMid slice"  id="c6r9s1" height="20" width="16" x="410" y="155"  xlink:href=""/>
				<image preserveAspectRatio="xMidYMid slice"  id="c6r9s2" height="20" width="16" x="394" y="140"  xlink:href=""/>
				<image preserveAspectRatio="xMidYMid slice"  id="c6r9s3" height="20" width="16" x="378" y="155"  xlink:href=""/>
				<image preserveAspectRatio="xMidYMid slice"  id="c6r9s4" height="20" width="16" x="362" y="140"  xlink:href=""/>
				<image preserveAspectRatio="xMidYMid slice"  id="c6r9s5" height="20" width="16" x="346" y="155"  xlink:href=""/>
				<image preserveAspectRatio="xMidYMid slice"  id="c6r9s6" height="20" width="16" x="330" y="140"  xlink:href=""/>
				<image preserveAspectRatio="xMidYMid slice"  id="c6r9s7" height="20" width="16" x="314" y="155"  xlink:href=""/>
                <image preserveAspectRatio="xMidYMid slice"  id="c6r9s8" height="20" width="16" x="298" y="140"  xlink:href=""/>
			</g>
	</g>

    <g class="c6r8">
        <text xml:space="preserve" text-anchor="start" font-family="Helvetica, Arial, sans-serif" font-size="10" x="414" y="245" fill="#b2b2b2">1</text>
        <text xml:space="preserve" text-anchor="start" font-family="Helvetica, Arial, sans-serif" font-size="10" x="398" y="230" fill="#b2b2b2">2</text>
		<text xml:space="preserve" text-anchor="start" font-family="Helvetica, Arial, sans-serif" font-size="10" x="382" y="245" fill="#b2b2b2">3</text>
		<text xml:space="preserve" text-anchor="start" font-family="Helvetica, Arial, sans-serif" font-size="10" x="366" y="230" fill="#b2b2b2">4</text>
		<text xml:space="preserve" text-anchor="start" font-family="Helvetica, Arial, sans-serif" font-size="10" x="350" y="245" fill="#b2b2b2">5</text>
		<text xml:space="preserve" text-anchor="start" font-family="Helvetica, Arial, sans-serif" font-size="10" x="334" y="230" fill="#b2b2b2">6</text>
		<text xml:space="preserve" text-anchor="start" font-family="Helvetica, Arial, sans-serif" font-size="10" x="318" y="245" fill="#b2b2b2">7</text>
        <text xml:space="preserve" text-anchor="start" font-family="Helvetica, Arial, sans-serif" font-size="10" x="302" y="230" fill="#b2b2b2">8</text>
        
			<g class="r8 seats">
				<rect id="c6r8s1" height="20" width="16" x="410" y="215" stroke="#7f7f7f" fill="#e5e5e5"/>
				<rect id="c6r8s2" height="20" width="16" x="394" y="200" stroke="#7f7f7f" fill="#e5e5e5"/>
				<rect id="c6r8s3" height="20" width="16" x="378" y="215" stroke="#7f7f7f" fill="#e5e5e5"/>
				<rect id="c6r8s4" height="20" width="16" x="362" y="200" stroke="#7f7f7f" fill="#e5e5e5"/>
				<rect id="c6r8s5" height="20" width="16" x="346" y="215" stroke="#7f7f7f" fill="#e5e5e5"/>
                <rect id="c6r8s6" height="20" width="16" x="330" y="200" stroke="#7f7f7f" fill="#e5e5e5"/>
                <rect id="c6r8s7" height="20" width="16" x="314" y="215" stroke="#7f7f7f" fill="#e5e5e5"/>
                <rect id="c6r8s8" height="20" width="16" x="298" y="200" stroke="#7f7f7f" fill="#e5e5e5"/>
				<image preserveAspectRatio="xMidYMid slice"  id="c6r8s1" height="20" width="16" x="410" y="215"  xlink:href=""/>
				<image preserveAspectRatio="xMidYMid slice"  id="c6r8s2" height="20" width="16" x="394" y="200"  xlink:href=""/>
				<image preserveAspectRatio="xMidYMid slice"  id="c6r8s3" height="20" width="16" x="378" y="215"  xlink:href=""/>
				<image preserveAspectRatio="xMidYMid slice"  id="c6r8s4" height="20" width="16" x="362" y="200"  xlink:href=""/>
				<image preserveAspectRatio="xMidYMid slice"  id="c6r8s5" height="20" width="16" x="346" y="215"  xlink:href=""/>
				<image preserveAspectRatio="xMidYMid slice"  id="c6r8s6" height="20" width="16" x="330" y="200"  xlink:href=""/>
				<image preserveAspectRatio="xMidYMid slice"  id="c6r8s7" height="20" width="16" x="314" y="215"  xlink:href=""/>
                <image preserveAspectRatio="xMidYMid slice"  id="c6r8s8" height="20" width="16" x="298" y="200"  xlink:href=""/>
			</g>
	</g>

    <g class="c6r7">
        <text xml:space="preserve" text-anchor="start" font-family="Helvetica, Arial, sans-serif" font-size="10" x="414" y="305" fill="#b2b2b2">1</text>
        <text xml:space="preserve" text-anchor="start" font-family="Helvetica, Arial, sans-serif" font-size="10" x="398" y="290" fill="#b2b2b2">2</text>
		<text xml:space="preserve" text-anchor="start" font-family="Helvetica, Arial, sans-serif" font-size="10" x="382" y="305" fill="#b2b2b2">3</text>
		<text xml:space="preserve" text-anchor="start" font-family="Helvetica, Arial, sans-serif" font-size="10" x="366" y="290" fill="#b2b2b2">4</text>
		<text xml:space="preserve" text-anchor="start" font-family="Helvetica, Arial, sans-serif" font-size="10" x="350" y="305" fill="#b2b2b2">5</text>
		<text xml:space="preserve" text-anchor="start" font-family="Helvetica, Arial, sans-serif" font-size="10" x="334" y="290" fill="#b2b2b2">6</text>
		<text xml:space="preserve" text-anchor="start" font-family="Helvetica, Arial, sans-serif" font-size="10" x="318" y="305" fill="#b2b2b2">7</text>
        <text xml:space="preserve" text-anchor="start" font-family="Helvetica, Arial, sans-serif" font-size="10" x="302" y="290" fill="#b2b2b2">8</text>
        
			<g class="r7 seats">
				<rect id="c6r7s1" height="20" width="16" x="410" y="275" stroke="#7f7f7f" fill="#e5e5e5"/>
				<rect id="c6r7s2" height="20" width="16" x="394" y="260" stroke="#7f7f7f" fill="#e5e5e5"/>
				<rect id="c6r7s3" height="20" width="16" x="378" y="275" stroke="#7f7f7f" fill="#e5e5e5"/>
				<rect id="c6r7s4" height="20" width="16" x="362" y="260" stroke="#7f7f7f" fill="#e5e5e5"/>
				<rect id="c6r7s5" height="20" width="16" x="346" y="275" stroke="#7f7f7f" fill="#e5e5e5"/>
                <rect id="c6r7s6" height="20" width="16" x="330" y="260" stroke="#7f7f7f" fill="#e5e5e5"/>
                <rect id="c6r7s7" height="20" width="16" x="314" y="275" stroke="#7f7f7f" fill="#e5e5e5"/>
                <rect id="c6r7s8" height="20" width="16" x="298" y="260" stroke="#7f7f7f" fill="#e5e5e5"/>
				<image preserveAspectRatio="xMidYMid slice"  id="c6r7s1" height="20" width="16" x="410" y="275"  xlink:href=""/>
				<image preserveAspectRatio="xMidYMid slice"  id="c6r7s2" height="20" width="16" x="394" y="260"  xlink:href=""/>
				<image preserveAspectRatio="xMidYMid slice"  id="c6r7s3" height="20" width="16" x="378" y="275"  xlink:href=""/>
				<image preserveAspectRatio="xMidYMid slice"  id="c6r7s4" height="20" width="16" x="362" y="260"  xlink:href=""/>
				<image preserveAspectRatio="xMidYMid slice"  id="c6r7s5" height="20" width="16" x="346" y="275"  xlink:href=""/>
				<image preserveAspectRatio="xMidYMid slice"  id="c6r7s6" height="20" width="16" x="330" y="260"  xlink:href=""/>
				<image preserveAspectRatio="xMidYMid slice"  id="c6r7s7" height="20" width="16" x="314" y="275"  xlink:href=""/>
                <image preserveAspectRatio="xMidYMid slice"  id="c6r7s8" height="20" width="16" x="298" y="260"  xlink:href=""/>
			</g>
	</g>

    <g class="c6r6">
        <text xml:space="preserve" text-anchor="start" font-family="Helvetica, Arial, sans-serif" font-size="10" x="414" y="365" fill="#b2b2b2">1</text>
        <text xml:space="preserve" text-anchor="start" font-family="Helvetica, Arial, sans-serif" font-size="10" x="398" y="350" fill="#b2b2b2">2</text>
		<text xml:space="preserve" text-anchor="start" font-family="Helvetica, Arial, sans-serif" font-size="10" x="382" y="365" fill="#b2b2b2">3</text>
		<text xml:space="preserve" text-anchor="start" font-family="Helvetica, Arial, sans-serif" font-size="10" x="366" y="350" fill="#b2b2b2">4</text>
		<text xml:space="preserve" text-anchor="start" font-family="Helvetica, Arial, sans-serif" font-size="10" x="350" y="365" fill="#b2b2b2">5</text>
		<text xml:space="preserve" text-anchor="start" font-family="Helvetica, Arial, sans-serif" font-size="10" x="334" y="350" fill="#b2b2b2">6</text>
		<text xml:space="preserve" text-anchor="start" font-family="Helvetica, Arial, sans-serif" font-size="10" x="318" y="365" fill="#b2b2b2">7</text>
        <text xml:space="preserve" text-anchor="start" font-family="Helvetica, Arial, sans-serif" font-size="10" x="302" y="350" fill="#b2b2b2">8</text>
        
			<g class="r6 seats">
				<rect id="c6r6s1" height="20" width="16" x="410" y="335" stroke="#7f7f7f" fill="#e5e5e5"/>
				<rect id="c6r6s2" height="20" width="16" x="394" y="320" stroke="#7f7f7f" fill="#e5e5e5"/>
				<rect id="c6r6s3" height="20" width="16" x="378" y="335" stroke="#7f7f7f" fill="#e5e5e5"/>
				<rect id="c6r6s4" height="20" width="16" x="362" y="320" stroke="#7f7f7f" fill="#e5e5e5"/>
				<rect id="c6r6s5" height="20" width="16" x="346" y="335" stroke="#7f7f7f" fill="#e5e5e5"/>
                <rect id="c6r6s6" height="20" width="16" x="330" y="320" stroke="#7f7f7f" fill="#e5e5e5"/>
                <rect id="c6r6s7" height="20" width="16" x="314" y="335" stroke="#7f7f7f" fill="#e5e5e5"/>
                <rect id="c6r6s8" height="20" width="16" x="298" y="320" stroke="#7f7f7f" fill="#e5e5e5"/>
				<image preserveAspectRatio="xMidYMid slice"  id="c6r6s1" height="20" width="16" x="410" y="335"  xlink:href=""/>
				<image preserveAspectRatio="xMidYMid slice"  id="c6r6s2" height="20" width="16" x="394" y="320"  xlink:href=""/>
				<image preserveAspectRatio="xMidYMid slice"  id="c6r6s3" height="20" width="16" x="378" y="335"  xlink:href=""/>
				<image preserveAspectRatio="xMidYMid slice"  id="c6r6s4" height="20" width="16" x="362" y="320"  xlink:href=""/>
				<image preserveAspectRatio="xMidYMid slice"  id="c6r6s5" height="20" width="16" x="346" y="335"  xlink:href=""/>
				<image preserveAspectRatio="xMidYMid slice"  id="c6r6s6" height="20" width="16" x="330" y="320"  xlink:href=""/>
				<image preserveAspectRatio="xMidYMid slice"  id="c6r6s7" height="20" width="16" x="314" y="335"  xlink:href=""/>
                <image preserveAspectRatio="xMidYMid slice"  id="c6r6s8" height="20" width="16" x="298" y="320"  xlink:href=""/>
			</g>
	</g>

    <g class="c6r5">
        <text xml:space="preserve" text-anchor="start" font-family="Helvetica, Arial, sans-serif" font-size="10" x="414" y="425" fill="#b2b2b2">1</text>
        <text xml:space="preserve" text-anchor="start" font-family="Helvetica, Arial, sans-serif" font-size="10" x="398" y="410" fill="#b2b2b2">2</text>
		<text xml:space="preserve" text-anchor="start" font-family="Helvetica, Arial, sans-serif" font-size="10" x="382" y="425" fill="#b2b2b2">3</text>
		<text xml:space="preserve" text-anchor="start" font-family="Helvetica, Arial, sans-serif" font-size="10" x="366" y="410" fill="#b2b2b2">4</text>
		<text xml:space="preserve" text-anchor="start" font-family="Helvetica, Arial, sans-serif" font-size="10" x="350" y="425" fill="#b2b2b2">5</text>
		<text xml:space="preserve" text-anchor="start" font-family="Helvetica, Arial, sans-serif" font-size="10" x="334" y="410" fill="#b2b2b2">6</text>
		<text xml:space="preserve" text-anchor="start" font-family="Helvetica, Arial, sans-serif" font-size="10" x="318" y="425" fill="#b2b2b2">7</text>
        <text xml:space="preserve" text-anchor="start" font-family="Helvetica, Arial, sans-serif" font-size="10" x="302" y="410" fill="#b2b2b2">8</text>
        
			<g class="r5 seats">
				<rect id="c6r5s1" height="20" width="16" x="410" y="395" stroke="#7f7f7f" fill="#e5e5e5"/>
				<rect id="c6r5s2" height="20" width="16" x="394" y="380" stroke="#7f7f7f" fill="#e5e5e5"/>
				<rect id="c6r5s3" height="20" width="16" x="378" y="395" stroke="#7f7f7f" fill="#e5e5e5"/>
				<rect id="c6r5s4" height="20" width="16" x="362" y="380" stroke="#7f7f7f" fill="#e5e5e5"/>
				<rect id="c6r5s5" height="20" width="16" x="346" y="395" stroke="#7f7f7f" fill="#e5e5e5"/>
                <rect id="c6r5s6" height="20" width="16" x="330" y="380" stroke="#7f7f7f" fill="#e5e5e5"/>
                <rect id="c6r5s7" height="20" width="16" x="314" y="395" stroke="#7f7f7f" fill="#e5e5e5"/>
                <rect id="c6r5s8" height="20" width="16" x="298" y="380" stroke="#7f7f7f" fill="#e5e5e5"/>
				<image preserveAspectRatio="xMidYMid slice"  id="c6r5s1" height="20" width="16" x="410" y="395"  xlink:href=""/>
				<image preserveAspectRatio="xMidYMid slice"  id="c6r5s2" height="20" width="16" x="394" y="380"  xlink:href=""/>
				<image preserveAspectRatio="xMidYMid slice"  id="c6r5s3" height="20" width="16" x="378" y="395"  xlink:href=""/>
				<image preserveAspectRatio="xMidYMid slice"  id="c6r5s4" height="20" width="16" x="362" y="380"  xlink:href=""/>
				<image preserveAspectRatio="xMidYMid slice"  id="c6r5s5" height="20" width="16" x="346" y="395"  xlink:href=""/>
				<image preserveAspectRatio="xMidYMid slice"  id="c6r5s6" height="20" width="16" x="330" y="380"  xlink:href=""/>
				<image preserveAspectRatio="xMidYMid slice"  id="c6r5s7" height="20" width="16" x="314" y="395"  xlink:href=""/>
                <image preserveAspectRatio="xMidYMid slice"  id="c6r5s8" height="20" width="16" x="298" y="380"  xlink:href=""/>
			</g>
	</g>

    <g class="c6r4">
        <text xml:space="preserve" text-anchor="start" font-family="Helvetica, Arial, sans-serif" font-size="10" x="414" y="485" fill="#b2b2b2">1</text>
        <text xml:space="preserve" text-anchor="start" font-family="Helvetica, Arial, sans-serif" font-size="10" x="398" y="470" fill="#b2b2b2">2</text>
		<text xml:space="preserve" text-anchor="start" font-family="Helvetica, Arial, sans-serif" font-size="10" x="382" y="485" fill="#b2b2b2">3</text>
		<text xml:space="preserve" text-anchor="start" font-family="Helvetica, Arial, sans-serif" font-size="10" x="366" y="470" fill="#b2b2b2">4</text>
		<text xml:space="preserve" text-anchor="start" font-family="Helvetica, Arial, sans-serif" font-size="10" x="350" y="485" fill="#b2b2b2">5</text>
		<text xml:space="preserve" text-anchor="start" font-family="Helvetica, Arial, sans-serif" font-size="10" x="334" y="470" fill="#b2b2b2">6</text>
		<text xml:space="preserve" text-anchor="start" font-family="Helvetica, Arial, sans-serif" font-size="10" x="318" y="485" fill="#b2b2b2">7</text>
        <text xml:space="preserve" text-anchor="start" font-family="Helvetica, Arial, sans-serif" font-size="10" x="302" y="470" fill="#b2b2b2">8</text>
        
			<g class="r4 seats">
				<rect id="c6r4s1" height="20" width="16" x="410" y="455" stroke="#7f7f7f" fill="#e5e5e5"/>
				<rect id="c6r4s2" height="20" width="16" x="394" y="440" stroke="#7f7f7f" fill="#e5e5e5"/>
				<rect id="c6r4s3" height="20" width="16" x="378" y="455" stroke="#7f7f7f" fill="#e5e5e5"/>
				<rect id="c6r4s4" height="20" width="16" x="362" y="440" stroke="#7f7f7f" fill="#e5e5e5"/>
				<rect id="c6r4s5" height="20" width="16" x="346" y="455" stroke="#7f7f7f" fill="#e5e5e5"/>
                <rect id="c6r4s6" height="20" width="16" x="330" y="440" stroke="#7f7f7f" fill="#e5e5e5"/>
                <rect id="c6r4s7" height="20" width="16" x="314" y="455" stroke="#7f7f7f" fill="#e5e5e5"/>
                <rect id="c6r4s8" height="20" width="16" x="298" y="440" stroke="#7f7f7f" fill="#e5e5e5"/>
				<image preserveAspectRatio="xMidYMid slice"  id="c6r4s1" height="20" width="16" x="410" y="455"  xlink:href=""/>
				<image preserveAspectRatio="xMidYMid slice"  id="c6r4s2" height="20" width="16" x="394" y="440"  xlink:href=""/>
				<image preserveAspectRatio="xMidYMid slice"  id="c6r4s3" height="20" width="16" x="378" y="455"  xlink:href=""/>
				<image preserveAspectRatio="xMidYMid slice"  id="c6r4s4" height="20" width="16" x="362" y="440"  xlink:href=""/>
				<image preserveAspectRatio="xMidYMid slice"  id="c6r4s5" height="20" width="16" x="346" y="455"  xlink:href=""/>
				<image preserveAspectRatio="xMidYMid slice"  id="c6r4s6" height="20" width="16" x="330" y="440"  xlink:href=""/>
				<image preserveAspectRatio="xMidYMid slice"  id="c6r4s7" height="20" width="16" x="314" y="455"  xlink:href=""/>
                <image preserveAspectRatio="xMidYMid slice"  id="c6r4s8" height="20" width="16" x="298" y="440"  xlink:href=""/>
			</g>
	</g>

    <g class="c6r3">
        <text xml:space="preserve" text-anchor="start" font-family="Helvetica, Arial, sans-serif" font-size="10" x="414" y="545" fill="#b2b2b2">1</text>
        <text xml:space="preserve" text-anchor="start" font-family="Helvetica, Arial, sans-serif" font-size="10" x="398" y="530" fill="#b2b2b2">2</text>
		<text xml:space="preserve" text-anchor="start" font-family="Helvetica, Arial, sans-serif" font-size="10" x="382" y="545" fill="#b2b2b2">3</text>
		<text xml:space="preserve" text-anchor="start" font-family="Helvetica, Arial, sans-serif" font-size="10" x="366" y="530" fill="#b2b2b2">4</text>
		<text xml:space="preserve" text-anchor="start" font-family="Helvetica, Arial, sans-serif" font-size="10" x="350" y="545" fill="#b2b2b2">5</text>
		<text xml:space="preserve" text-anchor="start" font-family="Helvetica, Arial, sans-serif" font-size="10" x="334" y="530" fill="#b2b2b2">6</text>
		<text xml:space="preserve" text-anchor="start" font-family="Helvetica, Arial, sans-serif" font-size="10" x="318" y="545" fill="#b2b2b2">7</text>
        <text xml:space="preserve" text-anchor="start" font-family="Helvetica, Arial, sans-serif" font-size="10" x="302" y="530" fill="#b2b2b2">8</text>
        
			<g class="r3 seats">
				<rect id="c6r3s1" height="20" width="16" x="410" y="515" stroke="#7f7f7f" fill="#e5e5e5"/>
				<rect id="c6r3s2" height="20" width="16" x="394" y="500" stroke="#7f7f7f" fill="#e5e5e5"/>
				<rect id="c6r3s3" height="20" width="16" x="378" y="515" stroke="#7f7f7f" fill="#e5e5e5"/>
				<rect id="c6r3s4" height="20" width="16" x="362" y="500" stroke="#7f7f7f" fill="#e5e5e5"/>
				<rect id="c6r3s5" height="20" width="16" x="346" y="515" stroke="#7f7f7f" fill="#e5e5e5"/>
                <rect id="c6r3s6" height="20" width="16" x="330" y="500" stroke="#7f7f7f" fill="#e5e5e5"/>
                <rect id="c6r3s7" height="20" width="16" x="314" y="515" stroke="#7f7f7f" fill="#e5e5e5"/>
                <rect id="c6r3s8" height="20" width="16" x="298" y="500" stroke="#7f7f7f" fill="#e5e5e5"/>
				<image preserveAspectRatio="xMidYMid slice"  id="c6r3s1" height="20" width="16" x="410" y="515"  xlink:href=""/>
				<image preserveAspectRatio="xMidYMid slice"  id="c6r3s2" height="20" width="16" x="394" y="500"  xlink:href=""/>
				<image preserveAspectRatio="xMidYMid slice"  id="c6r3s3" height="20" width="16" x="378" y="515"  xlink:href=""/>
				<image preserveAspectRatio="xMidYMid slice"  id="c6r3s4" height="20" width="16" x="362" y="500"  xlink:href=""/>
				<image preserveAspectRatio="xMidYMid slice"  id="c6r3s5" height="20" width="16" x="346" y="515"  xlink:href=""/>
				<image preserveAspectRatio="xMidYMid slice"  id="c6r3s6" height="20" width="16" x="330" y="500"  xlink:href=""/>
				<image preserveAspectRatio="xMidYMid slice"  id="c6r3s7" height="20" width="16" x="314" y="515"  xlink:href=""/>
                <image preserveAspectRatio="xMidYMid slice"  id="c6r3s8" height="20" width="16" x="298" y="500"  xlink:href=""/>
			</g>
	</g>

    <g class="c6r2">
        <text xml:space="preserve" text-anchor="start" font-family="Helvetica, Arial, sans-serif" font-size="10" x="414" y="605" fill="#b2b2b2">1</text>
        <text xml:space="preserve" text-anchor="start" font-family="Helvetica, Arial, sans-serif" font-size="10" x="398" y="590" fill="#b2b2b2">2</text>
		<text xml:space="preserve" text-anchor="start" font-family="Helvetica, Arial, sans-serif" font-size="10" x="382" y="605" fill="#b2b2b2">3</text>
		<text xml:space="preserve" text-anchor="start" font-family="Helvetica, Arial, sans-serif" font-size="10" x="366" y="590" fill="#b2b2b2">4</text>
		<text xml:space="preserve" text-anchor="start" font-family="Helvetica, Arial, sans-serif" font-size="10" x="350" y="605" fill="#b2b2b2">5</text>
		<text xml:space="preserve" text-anchor="start" font-family="Helvetica, Arial, sans-serif" font-size="10" x="334" y="590" fill="#b2b2b2">6</text>
		<text xml:space="preserve" text-anchor="start" font-family="Helvetica, Arial, sans-serif" font-size="10" x="318" y="605" fill="#b2b2b2">7</text>
        <text xml:space="preserve" text-anchor="start" font-family="Helvetica, Arial, sans-serif" font-size="10" x="302" y="590" fill="#b2b2b2">8</text>
        
			<g class="r2 seats">
				<rect id="c6r2s1" height="20" width="16" x="410" y="575" stroke="#7f7f7f" fill="#e5e5e5"/>
				<rect id="c6r2s2" height="20" width="16" x="394" y="560" stroke="#7f7f7f" fill="#e5e5e5"/>
				<rect id="c6r2s3" height="20" width="16" x="378" y="575" stroke="#7f7f7f" fill="#e5e5e5"/>
				<rect id="c6r2s4" height="20" width="16" x="362" y="560" stroke="#7f7f7f" fill="#e5e5e5"/>
				<rect id="c6r2s5" height="20" width="16" x="346" y="575" stroke="#7f7f7f" fill="#e5e5e5"/>
                <rect id="c6r2s6" height="20" width="16" x="330" y="560" stroke="#7f7f7f" fill="#e5e5e5"/>
                <rect id="c6r2s7" height="20" width="16" x="314" y="575" stroke="#7f7f7f" fill="#e5e5e5"/>
                <rect id="c6r2s8" height="20" width="16" x="298" y="560" stroke="#7f7f7f" fill="#e5e5e5"/>
				<image preserveAspectRatio="xMidYMid slice"  id="c6r2s1" height="20" width="16" x="410" y="575"  xlink:href=""/>
				<image preserveAspectRatio="xMidYMid slice"  id="c6r2s2" height="20" width="16" x="394" y="560"  xlink:href=""/>
				<image preserveAspectRatio="xMidYMid slice"  id="c6r2s3" height="20" width="16" x="378" y="575"  xlink:href=""/>
				<image preserveAspectRatio="xMidYMid slice"  id="c6r2s4" height="20" width="16" x="362" y="560"  xlink:href=""/>
				<image preserveAspectRatio="xMidYMid slice"  id="c6r2s5" height="20" width="16" x="346" y="575"  xlink:href=""/>
				<image preserveAspectRatio="xMidYMid slice"  id="c6r2s6" height="20" width="16" x="330" y="560"  xlink:href=""/>
				<image preserveAspectRatio="xMidYMid slice"  id="c6r2s7" height="20" width="16" x="314" y="575"  xlink:href=""/>
                <image preserveAspectRatio="xMidYMid slice"  id="c6r2s8" height="20" width="16" x="298" y="560"  xlink:href=""/>
			</g>
	</g>

    <g class="c6r1">
        <text xml:space="preserve" text-anchor="start" font-family="Helvetica, Arial, sans-serif" font-size="10" x="414" y="665" fill="#b2b2b2">1</text>
        <text xml:space="preserve" text-anchor="start" font-family="Helvetica, Arial, sans-serif" font-size="10" x="398" y="650" fill="#b2b2b2">2</text>
		<text xml:space="preserve" text-anchor="start" font-family="Helvetica, Arial, sans-serif" font-size="10" x="382" y="665" fill="#b2b2b2">3</text>
		<text xml:space="preserve" text-anchor="start" font-family="Helvetica, Arial, sans-serif" font-size="10" x="366" y="650" fill="#b2b2b2">4</text>
		<text xml:space="preserve" text-anchor="start" font-family="Helvetica, Arial, sans-serif" font-size="10" x="350" y="665" fill="#b2b2b2">5</text>
		<text xml:space="preserve" text-anchor="start" font-family="Helvetica, Arial, sans-serif" font-size="10" x="334" y="650" fill="#b2b2b2">6</text>
		<text xml:space="preserve" text-anchor="start" font-family="Helvetica, Arial, sans-serif" font-size="10" x="318" y="665" fill="#b2b2b2">7</text>
        <text xml:space="preserve" text-anchor="start" font-family="Helvetica, Arial, sans-serif" font-size="10" x="302" y="650" fill="#b2b2b2">8</text>
        
			<g class="r1 seats">
				<rect id="c6r1s1" height="20" width="16" x="410" y="635" stroke="#7f7f7f" fill="#e5e5e5"/>
				<rect id="c6r1s2" height="20" width="16" x="394" y="620" stroke="#7f7f7f" fill="#e5e5e5"/>
				<rect id="c6r1s3" height="20" width="16" x="378" y="635" stroke="#7f7f7f" fill="#e5e5e5"/>
				<rect id="c6r1s4" height="20" width="16" x="362" y="620" stroke="#7f7f7f" fill="#e5e5e5"/>
				<rect id="c6r1s5" height="20" width="16" x="346" y="635" stroke="#7f7f7f" fill="#e5e5e5"/>
                <rect id="c6r1s6" height="20" width="16" x="330" y="620" stroke="#7f7f7f" fill="#e5e5e5"/>
                <rect id="c6r1s7" height="20" width="16" x="314" y="635" stroke="#7f7f7f" fill="#e5e5e5"/>
                <rect id="c6r1s8" height="20" width="16" x="298" y="620" stroke="#7f7f7f" fill="#e5e5e5"/>
				<image preserveAspectRatio="xMidYMid slice"  id="c6r1s1" height="20" width="16" x="410" y="635"  xlink:href=""/>
				<image preserveAspectRatio="xMidYMid slice"  id="c6r1s2" height="20" width="16" x="394" y="620"  xlink:href=""/>
				<image preserveAspectRatio="xMidYMid slice"  id="c6r1s3" height="20" width="16" x="378" y="635"  xlink:href=""/>
				<image preserveAspectRatio="xMidYMid slice"  id="c6r1s4" height="20" width="16" x="362" y="620"  xlink:href=""/>
				<image preserveAspectRatio="xMidYMid slice"  id="c6r1s5" height="20" width="16" x="346" y="635"  xlink:href=""/>
				<image preserveAspectRatio="xMidYMid slice"  id="c6r1s6" height="20" width="16" x="330" y="620"  xlink:href=""/>
				<image preserveAspectRatio="xMidYMid slice"  id="c6r1s7" height="20" width="16" x="314" y="635"  xlink:href=""/>
                <image preserveAspectRatio="xMidYMid slice"  id="c6r1s8" height="20" width="16" x="298" y="620"  xlink:href=""/>
			</g>
	</g>

	<text fill="#cccccc" x="450" y="106" font-size="20" font-family="Helvetica, Arial, sans-serif" xml:space="preserve" font-weight="bold">r10</text>
	<text fill="#cccccc" x="450" y="166" font-size="20" font-family="Helvetica, Arial, sans-serif" xml:space="preserve" font-weight="bold">r9</text>
	<text fill="#cccccc" x="450" y="226" font-size="20" font-family="Helvetica, Arial, sans-serif" xml:space="preserve" font-weight="bold">r8</text>
	<text fill="#cccccc" x="450" y="286" font-size="20" font-family="Helvetica, Arial, sans-serif" xml:space="preserve" font-weight="bold">r7</text>
	<text fill="#cccccc" x="450" y="346" font-size="20" font-family="Helvetica, Arial, sans-serif" xml:space="preserve" font-weight="bold">r6</text>
	<text fill="#cccccc" x="450" y="406" font-size="20" font-family="Helvetica, Arial, sans-serif" xml:space="preserve" font-weight="bold">r5</text>
	<text fill="#cccccc" x="450" y="466" font-size="20" font-family="Helvetica, Arial, sans-serif" xml:space="preserve" font-weight="bold">r4</text>
	<text fill="#cccccc" x="450" y="526" font-size="20" font-family="Helvetica, Arial, sans-serif" xml:space="preserve" font-weight="bold">r3</text>
	<text fill="#cccccc" x="450" y="586" font-size="20" font-family="Helvetica, Arial, sans-serif" xml:space="preserve" font-weight="bold">r2</text>
	<text fill="#cccccc" x="450" y="646" font-size="20" font-family="Helvetica, Arial, sans-serif" xml:space="preserve" font-weight="bold">r1</text>
    <text fill="#cccccc" x="100" y="100" font-size="40" font-family="Helvetica, Arial, sans-serif" xml:space="preserve" font-weight="bold">c6</text>

    </svg>